<?xml version="1.0" encoding="UTF-8"?>
<svg version="1.1" viewBox="0 0 140 60" xmlns="http://www.w3.org/2000/svg">
 <g fill="#46b7ba">
  <path d="m110.9 19.73c-14.78 0-26.8 8.153-26.8 18.17 0 4.441 2.419 8.727 6.812 12.07l0.7825 0.596-0.1924 0.9644c-0.3154 1.581-0.8625 3.028-1.626 4.301-0.2417 0.4019-0.508 0.7992-0.7936 1.187 2.569-1.167 5.26-2.322 7.701-3.241l0.5561-0.21 0.5568 0.2113c3.958 1.502 8.453 2.296 13 2.296 14.78 0 26.8-8.153 26.8-18.17 0-10.02-12.02-18.17-26.8-18.17zm8.734 9.924c0.9112 0 1.715 0.3747 1.715 1.527 0 1.099-0.8043 1.528-1.715 1.528-0.9112 0-1.688-0.429-1.688-1.528 0-1.152 0.7768-1.527 1.688-1.527zm-10.32 3.939c3.296 0 5.413 1.715 5.413 5.172v6.994c0 0.7772-3.699 1.34-5.092 1.34-2.653 0-5.145-0.6699-5.145-3.993 0-3.43 2.037-4.18 4.529-4.18h2.68v-0.1341c0-1.769-1.125-2.385-3.028-2.385-0.804 0-1.661 0.1343-2.599 0.3219-0.134 0-0.2952-0.05383-0.3756-0.2414l-0.3749-2.037c0-0.1876 0.1068-0.3213 0.2676-0.4017 1.233-0.3484 2.439-0.4554 3.725-0.4554zm9.303 0.2139h2.064c0.2144 0 0.4822 0.1613 0.4822 0.4828v12.11c0 0.3216-0.2678 0.4822-0.4822 0.4822h-2.064c-0.2144 0-0.4828-0.1606-0.4828-0.4822v-12.11c0-0.3216 0.2684-0.4828 0.4828-0.4828zm-8.713 7.718c-1.045 0-2.385 0.1876-2.385 1.394 0 1.206 0.7772 1.554 2.01 1.554 0.9112 0 2.171-0.2675 2.171-0.8571v-2.09zm-9.747 2.144c0.938 0 1.715 0.7769 1.715 1.715 0 0.938-0.7769 1.715-1.715 1.715-0.938 0-1.715-0.7769-1.715-1.715 0-0.938 0.7775-1.715 1.715-1.715z" stroke-width=".335"/>
  <path d="m20.29 19.6c0.2144 0.0536 0.8576 0.2144 1.018 0.2144 0.3752 0 0.536-0.1608 0.6968-0.4288l1.501-3.537c0.0536-0.1608 0.1608-0.4288 0.1608-0.6432 0-0.268-0.0536-0.536-0.4288-0.6968-3.055-1.394-5.306-1.822-9.165-1.822-6.485 0-11.74 2.894-11.74 9.808 0 11.31 17.63 8.683 17.63 15.06 0 1.608-0.4288 3.537-5.574 3.537-2.465 0-5.628-0.7504-8.415-2.305-0.2144-0.1072-0.3752-0.1608-0.536-0.1608-0.3752 0-0.536 0.2144-0.6968 0.4824l-2.037 3.698c-0.1072 0.1608-0.1608 0.3216-0.1608 0.536 0 0.268 0.0536 0.536 0.4288 0.804 4.395 3.055 11.15 3.162 11.15 3.162 11.79 0 12.7-7.879 12.7-9.808 0-12.11-17.63-9.487-17.63-15.22 0-2.733 2.144-3.377 5.521-3.377 1.983 0 3.913 0.3216 5.574 0.6968z"/>
  <path d="m48.02 46.24c0.1608 0.4288 0.536 0.6432 0.9112 0.6432h4.77c0.4288 0 0.9648-0.3216 0.9648-0.9648l-4.288-8.897c4.77-3.109 4.877-8.736 4.877-8.736v-4.449s-0.1608-10.72-12.76-10.72h-9.755c-0.4288 0-0.9648 0.3216-0.9648 0.9648v31.84c0 0.6432 0.536 0.9648 0.9648 0.9648h4.985c0.4288 0 0.9648-0.3216 0.9648-0.9648v-6.86h3.805c0.7504 0 1.447 0 2.144-0.1072zm-5.521-26.8c1.715 0 5.842 0.4288 5.842 5.735v1.715c0 5.306-4.127 5.842-5.842 5.842h-3.805v-13.29z"/>
  <path d="m59.29 13.12c-0.6432 0-0.9648 0.536-0.9648 0.9648v4.395c0 0.4288 0.3216 0.9648 0.9648 0.9648h7.504v26.48c0 0.6432 0.536 0.9648 0.9648 0.9648h4.985c0.4288 0 0.9648-0.3216 0.9648-0.9648v-26.48h7.504c0.6432 0 0.9648-0.536 0.9648-0.9648v-4.395c0-0.4288-0.3216-0.9648-0.9648-0.9648z"/>
 </g>
</svg>
